<mxfile host="app.diagrams.net" modified="2021-05-01T21:35:50.087Z" agent="5.0 (Windows NT 10.0; Win64; x64) AppleWebKit/537.36 (KHTML, like Gecko) Chrome/90.0.4430.85 Safari/537.36" etag="_imqCHo8nRdcCwj6xjj5" version="14.6.1" type="github" pages="2">
  <diagram id="C5RBs43oDa-KdzZeNtuy" name="Page-1">
    <mxGraphModel dx="1038" dy="548" grid="1" gridSize="10" guides="1" tooltips="1" connect="1" arrows="1" fold="1" page="1" pageScale="1" pageWidth="827" pageHeight="1169" math="0" shadow="0">
      <root>
        <mxCell id="WIyWlLk6GJQsqaUBKTNV-0" />
        <mxCell id="WIyWlLk6GJQsqaUBKTNV-1" parent="WIyWlLk6GJQsqaUBKTNV-0" />
        <mxCell id="WIyWlLk6GJQsqaUBKTNV-2" value="" style="rounded=0;html=1;jettySize=auto;orthogonalLoop=1;fontSize=11;endArrow=block;endFill=0;endSize=8;strokeWidth=1;shadow=0;labelBackgroundColor=none;edgeStyle=orthogonalEdgeStyle;" parent="WIyWlLk6GJQsqaUBKTNV-1" source="WIyWlLk6GJQsqaUBKTNV-3" target="WIyWlLk6GJQsqaUBKTNV-6" edge="1">
          <mxGeometry relative="1" as="geometry" />
        </mxCell>
        <mxCell id="WIyWlLk6GJQsqaUBKTNV-3" value="Lamp doesn&#39;t work" style="rounded=1;whiteSpace=wrap;html=1;fontSize=12;glass=0;strokeWidth=1;shadow=0;" parent="WIyWlLk6GJQsqaUBKTNV-1" vertex="1">
          <mxGeometry x="140" y="80" width="120" height="40" as="geometry" />
        </mxCell>
        <mxCell id="WIyWlLk6GJQsqaUBKTNV-4" value="Yes" style="rounded=0;html=1;jettySize=auto;orthogonalLoop=1;fontSize=11;endArrow=block;endFill=0;endSize=8;strokeWidth=1;shadow=0;labelBackgroundColor=none;edgeStyle=orthogonalEdgeStyle;" parent="WIyWlLk6GJQsqaUBKTNV-1" source="WIyWlLk6GJQsqaUBKTNV-6" target="WIyWlLk6GJQsqaUBKTNV-10" edge="1">
          <mxGeometry y="20" relative="1" as="geometry">
            <mxPoint as="offset" />
          </mxGeometry>
        </mxCell>
        <mxCell id="WIyWlLk6GJQsqaUBKTNV-5" value="No" style="edgeStyle=orthogonalEdgeStyle;rounded=0;html=1;jettySize=auto;orthogonalLoop=1;fontSize=11;endArrow=block;endFill=0;endSize=8;strokeWidth=1;shadow=0;labelBackgroundColor=none;" parent="WIyWlLk6GJQsqaUBKTNV-1" source="WIyWlLk6GJQsqaUBKTNV-6" target="WIyWlLk6GJQsqaUBKTNV-7" edge="1">
          <mxGeometry y="10" relative="1" as="geometry">
            <mxPoint as="offset" />
          </mxGeometry>
        </mxCell>
        <mxCell id="WIyWlLk6GJQsqaUBKTNV-6" value="Lamp&lt;br&gt;plugged in?" style="rhombus;whiteSpace=wrap;html=1;shadow=0;fontFamily=Helvetica;fontSize=12;align=center;strokeWidth=1;spacing=6;spacingTop=-4;" parent="WIyWlLk6GJQsqaUBKTNV-1" vertex="1">
          <mxGeometry x="170" y="170" width="100" height="80" as="geometry" />
        </mxCell>
        <mxCell id="WIyWlLk6GJQsqaUBKTNV-7" value="Plug in lamp" style="rounded=1;whiteSpace=wrap;html=1;fontSize=12;glass=0;strokeWidth=1;shadow=0;" parent="WIyWlLk6GJQsqaUBKTNV-1" vertex="1">
          <mxGeometry x="320" y="190" width="120" height="40" as="geometry" />
        </mxCell>
        <mxCell id="WIyWlLk6GJQsqaUBKTNV-8" value="No" style="rounded=0;html=1;jettySize=auto;orthogonalLoop=1;fontSize=11;endArrow=block;endFill=0;endSize=8;strokeWidth=1;shadow=0;labelBackgroundColor=none;edgeStyle=orthogonalEdgeStyle;" parent="WIyWlLk6GJQsqaUBKTNV-1" source="WIyWlLk6GJQsqaUBKTNV-10" target="WIyWlLk6GJQsqaUBKTNV-11" edge="1">
          <mxGeometry x="0.3333" y="20" relative="1" as="geometry">
            <mxPoint as="offset" />
          </mxGeometry>
        </mxCell>
        <mxCell id="WIyWlLk6GJQsqaUBKTNV-9" value="Yes" style="edgeStyle=orthogonalEdgeStyle;rounded=0;html=1;jettySize=auto;orthogonalLoop=1;fontSize=11;endArrow=block;endFill=0;endSize=8;strokeWidth=1;shadow=0;labelBackgroundColor=none;" parent="WIyWlLk6GJQsqaUBKTNV-1" source="WIyWlLk6GJQsqaUBKTNV-10" target="WIyWlLk6GJQsqaUBKTNV-12" edge="1">
          <mxGeometry y="10" relative="1" as="geometry">
            <mxPoint as="offset" />
          </mxGeometry>
        </mxCell>
        <mxCell id="WIyWlLk6GJQsqaUBKTNV-10" value="Bulb&lt;br&gt;burned out?" style="rhombus;whiteSpace=wrap;html=1;shadow=0;fontFamily=Helvetica;fontSize=12;align=center;strokeWidth=1;spacing=6;spacingTop=-4;" parent="WIyWlLk6GJQsqaUBKTNV-1" vertex="1">
          <mxGeometry x="170" y="290" width="100" height="80" as="geometry" />
        </mxCell>
        <mxCell id="WIyWlLk6GJQsqaUBKTNV-11" value="Repair Lamp" style="rounded=1;whiteSpace=wrap;html=1;fontSize=12;glass=0;strokeWidth=1;shadow=0;" parent="WIyWlLk6GJQsqaUBKTNV-1" vertex="1">
          <mxGeometry x="160" y="430" width="120" height="40" as="geometry" />
        </mxCell>
        <mxCell id="WIyWlLk6GJQsqaUBKTNV-12" value="Replace Bulb" style="rounded=1;whiteSpace=wrap;html=1;fontSize=12;glass=0;strokeWidth=1;shadow=0;" parent="WIyWlLk6GJQsqaUBKTNV-1" vertex="1">
          <mxGeometry x="320" y="310" width="120" height="40" as="geometry" />
        </mxCell>
      </root>
    </mxGraphModel>
  </diagram>
  <diagram id="e84EkfOC3rel4TcEUdCD" name="Page-2">
    <mxGraphModel dx="1107" dy="548" grid="1" gridSize="10" guides="1" tooltips="1" connect="1" arrows="1" fold="1" page="1" pageScale="1" pageWidth="2339" pageHeight="3300" math="0" shadow="0">
      <root>
        <mxCell id="23UplW50tc-FAYj3UT-r-0" />
        <mxCell id="23UplW50tc-FAYj3UT-r-1" parent="23UplW50tc-FAYj3UT-r-0" />
        <mxCell id="23UplW50tc-FAYj3UT-r-23" style="edgeStyle=orthogonalEdgeStyle;rounded=0;orthogonalLoop=1;jettySize=auto;html=1;entryX=0;entryY=0.5;entryDx=0;entryDy=0;" edge="1" parent="23UplW50tc-FAYj3UT-r-1" source="23UplW50tc-FAYj3UT-r-16" target="23UplW50tc-FAYj3UT-r-20">
          <mxGeometry relative="1" as="geometry" />
        </mxCell>
        <mxCell id="23UplW50tc-FAYj3UT-r-2" value="&lt;font style=&quot;font-size: 17px&quot;&gt;Services cant invoke any kind of GUI&#39;s&lt;/font&gt;" style="rounded=1;whiteSpace=wrap;html=1;fillColor=#f8cecc;strokeColor=#b85450;" vertex="1" parent="23UplW50tc-FAYj3UT-r-1">
          <mxGeometry x="750" y="50" width="230" height="60" as="geometry" />
        </mxCell>
        <mxCell id="23UplW50tc-FAYj3UT-r-5" value="" style="edgeStyle=orthogonalEdgeStyle;rounded=0;orthogonalLoop=1;jettySize=auto;html=1;" edge="1" parent="23UplW50tc-FAYj3UT-r-1" source="23UplW50tc-FAYj3UT-r-4" target="23UplW50tc-FAYj3UT-r-2">
          <mxGeometry relative="1" as="geometry" />
        </mxCell>
        <mxCell id="23UplW50tc-FAYj3UT-r-4" value="&lt;font style=&quot;font-size: 15px&quot;&gt;Making the agent into a service running all the time&lt;/font&gt;" style="rounded=1;whiteSpace=wrap;html=1;" vertex="1" parent="23UplW50tc-FAYj3UT-r-1">
          <mxGeometry x="475" y="50" width="220" height="60" as="geometry" />
        </mxCell>
        <mxCell id="23UplW50tc-FAYj3UT-r-6" value="&lt;font style=&quot;font-size: 15px&quot;&gt;Usually apps which have a service and ui is designed into 2 parts and intergrated&lt;/font&gt;" style="ellipse;whiteSpace=wrap;html=1;" vertex="1" parent="23UplW50tc-FAYj3UT-r-1">
          <mxGeometry x="1070" y="40" width="330" height="80" as="geometry" />
        </mxCell>
        <mxCell id="23UplW50tc-FAYj3UT-r-7" value="&lt;span style=&quot;font-size: 14px&quot;&gt;Service app&lt;/span&gt;" style="rounded=1;whiteSpace=wrap;html=1;" vertex="1" parent="23UplW50tc-FAYj3UT-r-1">
          <mxGeometry x="500" y="255" width="200" height="60" as="geometry" />
        </mxCell>
        <mxCell id="23UplW50tc-FAYj3UT-r-9" value="" style="edgeStyle=orthogonalEdgeStyle;rounded=0;orthogonalLoop=1;jettySize=auto;html=1;" edge="1" parent="23UplW50tc-FAYj3UT-r-1" source="23UplW50tc-FAYj3UT-r-7" target="23UplW50tc-FAYj3UT-r-8">
          <mxGeometry relative="1" as="geometry" />
        </mxCell>
        <mxCell id="23UplW50tc-FAYj3UT-r-8" value="&lt;font style=&quot;font-size: 14px&quot;&gt;Functions of the service&amp;nbsp;&lt;br&gt;&lt;br&gt;1. Running all the time in background and user cant close it&lt;br&gt;&lt;br&gt;2. Service app silently handles all the API calls happening to the gallery portal and updates the scripts regularly&lt;br&gt;&lt;br&gt;3.&amp;nbsp;Service also has the functionality built to run scripts remotely without the agent UI actually running&amp;nbsp;&lt;br&gt;&lt;br&gt;4. Service app has a lightweight server locally running on the pc to interact with agent UI&lt;br&gt;&lt;/font&gt;" style="rounded=0;whiteSpace=wrap;html=1;" vertex="1" parent="23UplW50tc-FAYj3UT-r-1">
          <mxGeometry x="770" y="180" width="390" height="210" as="geometry" />
        </mxCell>
        <mxCell id="23UplW50tc-FAYj3UT-r-14" value="&lt;span style=&quot;font-size: 14px&quot;&gt;Agent UI&lt;/span&gt;" style="rounded=1;whiteSpace=wrap;html=1;" vertex="1" parent="23UplW50tc-FAYj3UT-r-1">
          <mxGeometry x="460" y="500" width="200" height="60" as="geometry" />
        </mxCell>
        <mxCell id="23UplW50tc-FAYj3UT-r-17" style="edgeStyle=orthogonalEdgeStyle;rounded=0;orthogonalLoop=1;jettySize=auto;html=1;entryX=0;entryY=0.5;entryDx=0;entryDy=0;" edge="1" parent="23UplW50tc-FAYj3UT-r-1" source="23UplW50tc-FAYj3UT-r-15" target="23UplW50tc-FAYj3UT-r-16">
          <mxGeometry relative="1" as="geometry" />
        </mxCell>
        <mxCell id="23UplW50tc-FAYj3UT-r-15" value="&lt;font style=&quot;font-size: 15px&quot;&gt;1. User clicks on install button for an app&lt;/font&gt;" style="rounded=0;whiteSpace=wrap;html=1;" vertex="1" parent="23UplW50tc-FAYj3UT-r-1">
          <mxGeometry x="430" y="580" width="290" height="50" as="geometry" />
        </mxCell>
        <mxCell id="23UplW50tc-FAYj3UT-r-16" value="&lt;span style=&quot;font-size: 14px&quot;&gt;Service app&lt;/span&gt;" style="rounded=1;whiteSpace=wrap;html=1;" vertex="1" parent="23UplW50tc-FAYj3UT-r-1">
          <mxGeometry x="930" y="575" width="200" height="60" as="geometry" />
        </mxCell>
        <mxCell id="23UplW50tc-FAYj3UT-r-18" value="&lt;font style=&quot;font-size: 15px&quot;&gt;Makes an internal&lt;br&gt;&amp;nbsp;API call to the service&lt;br&gt;&lt;br&gt;&lt;/font&gt;" style="text;html=1;align=center;verticalAlign=middle;resizable=0;points=[];autosize=1;strokeColor=none;" vertex="1" parent="23UplW50tc-FAYj3UT-r-1">
          <mxGeometry x="750" y="565" width="160" height="50" as="geometry" />
        </mxCell>
        <mxCell id="23UplW50tc-FAYj3UT-r-20" value="&lt;span style=&quot;font-size: 14px&quot;&gt;Scripts gallery portal&lt;/span&gt;" style="rounded=1;whiteSpace=wrap;html=1;" vertex="1" parent="23UplW50tc-FAYj3UT-r-1">
          <mxGeometry x="1270" y="575" width="200" height="60" as="geometry" />
        </mxCell>
        <mxCell id="23UplW50tc-FAYj3UT-r-24" style="edgeStyle=orthogonalEdgeStyle;rounded=0;orthogonalLoop=1;jettySize=auto;html=1;exitX=0;exitY=0.5;exitDx=0;exitDy=0;" edge="1" parent="23UplW50tc-FAYj3UT-r-1">
          <mxGeometry relative="1" as="geometry">
            <mxPoint x="1270" y="615" as="sourcePoint" />
            <mxPoint x="1130" y="615" as="targetPoint" />
          </mxGeometry>
        </mxCell>
        <mxCell id="23UplW50tc-FAYj3UT-r-25" value="&lt;font style=&quot;font-size: 15px&quot;&gt;Makes&amp;nbsp; API call&lt;br&gt;&lt;br&gt;&lt;/font&gt;" style="text;html=1;align=center;verticalAlign=middle;resizable=0;points=[];autosize=1;strokeColor=none;" vertex="1" parent="23UplW50tc-FAYj3UT-r-1">
          <mxGeometry x="1145" y="580" width="120" height="30" as="geometry" />
        </mxCell>
        <mxCell id="23UplW50tc-FAYj3UT-r-26" value="&lt;font style=&quot;font-size: 15px&quot;&gt;Downloads the exe&lt;br&gt;&lt;/font&gt;" style="text;html=1;align=center;verticalAlign=middle;resizable=0;points=[];autosize=1;strokeColor=none;" vertex="1" parent="23UplW50tc-FAYj3UT-r-1">
          <mxGeometry x="960" y="640" width="140" height="20" as="geometry" />
        </mxCell>
        <mxCell id="23UplW50tc-FAYj3UT-r-28" value="&lt;span style=&quot;font-size: 14px&quot;&gt;Azure dev Ops (Git)&lt;/span&gt;" style="rounded=1;whiteSpace=wrap;html=1;" vertex="1" parent="23UplW50tc-FAYj3UT-r-1">
          <mxGeometry x="1660" y="575" width="200" height="60" as="geometry" />
        </mxCell>
        <mxCell id="23UplW50tc-FAYj3UT-r-30" value="" style="endArrow=classic;startArrow=classic;html=1;exitX=1;exitY=0.5;exitDx=0;exitDy=0;entryX=0;entryY=0.5;entryDx=0;entryDy=0;" edge="1" parent="23UplW50tc-FAYj3UT-r-1" source="23UplW50tc-FAYj3UT-r-20" target="23UplW50tc-FAYj3UT-r-28">
          <mxGeometry width="50" height="50" relative="1" as="geometry">
            <mxPoint x="1560" y="730" as="sourcePoint" />
            <mxPoint x="1610" y="680" as="targetPoint" />
          </mxGeometry>
        </mxCell>
        <mxCell id="23UplW50tc-FAYj3UT-r-33" value="&lt;font style=&quot;font-size: 15px&quot;&gt;Gets the exe&lt;br&gt;&lt;/font&gt;" style="text;html=1;align=center;verticalAlign=middle;resizable=0;points=[];autosize=1;strokeColor=none;" vertex="1" parent="23UplW50tc-FAYj3UT-r-1">
          <mxGeometry x="1488" y="580" width="100" height="20" as="geometry" />
        </mxCell>
        <mxCell id="23UplW50tc-FAYj3UT-r-34" style="edgeStyle=orthogonalEdgeStyle;rounded=0;orthogonalLoop=1;jettySize=auto;html=1;entryX=0;entryY=0.5;entryDx=0;entryDy=0;" edge="1" parent="23UplW50tc-FAYj3UT-r-1" source="23UplW50tc-FAYj3UT-r-37" target="23UplW50tc-FAYj3UT-r-39">
          <mxGeometry relative="1" as="geometry" />
        </mxCell>
        <mxCell id="23UplW50tc-FAYj3UT-r-35" style="edgeStyle=orthogonalEdgeStyle;rounded=0;orthogonalLoop=1;jettySize=auto;html=1;entryX=0;entryY=0.5;entryDx=0;entryDy=0;" edge="1" parent="23UplW50tc-FAYj3UT-r-1" source="23UplW50tc-FAYj3UT-r-36" target="23UplW50tc-FAYj3UT-r-37">
          <mxGeometry relative="1" as="geometry" />
        </mxCell>
        <mxCell id="23UplW50tc-FAYj3UT-r-36" value="&lt;font style=&quot;font-size: 15px&quot;&gt;2. User clicks on sync button in agent&amp;nbsp;&lt;/font&gt;" style="rounded=0;whiteSpace=wrap;html=1;" vertex="1" parent="23UplW50tc-FAYj3UT-r-1">
          <mxGeometry x="430" y="725" width="290" height="50" as="geometry" />
        </mxCell>
        <mxCell id="23UplW50tc-FAYj3UT-r-37" value="&lt;span style=&quot;font-size: 14px&quot;&gt;Service app&lt;/span&gt;" style="rounded=1;whiteSpace=wrap;html=1;" vertex="1" parent="23UplW50tc-FAYj3UT-r-1">
          <mxGeometry x="930" y="720" width="200" height="60" as="geometry" />
        </mxCell>
        <mxCell id="23UplW50tc-FAYj3UT-r-38" value="&lt;font style=&quot;font-size: 15px&quot;&gt;Makes an internal&lt;br&gt;&amp;nbsp;API call to the service&lt;br&gt;&lt;br&gt;&lt;/font&gt;" style="text;html=1;align=center;verticalAlign=middle;resizable=0;points=[];autosize=1;strokeColor=none;" vertex="1" parent="23UplW50tc-FAYj3UT-r-1">
          <mxGeometry x="750" y="710" width="160" height="50" as="geometry" />
        </mxCell>
        <mxCell id="23UplW50tc-FAYj3UT-r-39" value="&lt;span style=&quot;font-size: 14px&quot;&gt;Scripts gallery portal&lt;/span&gt;" style="rounded=1;whiteSpace=wrap;html=1;" vertex="1" parent="23UplW50tc-FAYj3UT-r-1">
          <mxGeometry x="1270" y="720" width="200" height="60" as="geometry" />
        </mxCell>
        <mxCell id="23UplW50tc-FAYj3UT-r-40" style="edgeStyle=orthogonalEdgeStyle;rounded=0;orthogonalLoop=1;jettySize=auto;html=1;exitX=0;exitY=0.5;exitDx=0;exitDy=0;" edge="1" parent="23UplW50tc-FAYj3UT-r-1">
          <mxGeometry relative="1" as="geometry">
            <mxPoint x="1270" y="760" as="sourcePoint" />
            <mxPoint x="1130" y="760" as="targetPoint" />
          </mxGeometry>
        </mxCell>
        <mxCell id="23UplW50tc-FAYj3UT-r-41" value="&lt;font style=&quot;font-size: 15px&quot;&gt;Makes&amp;nbsp; API call&lt;br&gt;&lt;br&gt;&lt;/font&gt;" style="text;html=1;align=center;verticalAlign=middle;resizable=0;points=[];autosize=1;strokeColor=none;" vertex="1" parent="23UplW50tc-FAYj3UT-r-1">
          <mxGeometry x="1145" y="725" width="120" height="30" as="geometry" />
        </mxCell>
        <mxCell id="23UplW50tc-FAYj3UT-r-42" value="&lt;font style=&quot;font-size: 15px&quot;&gt;Refreshes the local scripts&lt;br&gt;&lt;/font&gt;" style="text;html=1;align=center;verticalAlign=middle;resizable=0;points=[];autosize=1;strokeColor=none;" vertex="1" parent="23UplW50tc-FAYj3UT-r-1">
          <mxGeometry x="935" y="785" width="190" height="20" as="geometry" />
        </mxCell>
        <mxCell id="23UplW50tc-FAYj3UT-r-43" value="&lt;span style=&quot;font-size: 14px&quot;&gt;Azure dev Ops (Git)&lt;/span&gt;" style="rounded=1;whiteSpace=wrap;html=1;" vertex="1" parent="23UplW50tc-FAYj3UT-r-1">
          <mxGeometry x="1650" y="720" width="200" height="60" as="geometry" />
        </mxCell>
        <mxCell id="23UplW50tc-FAYj3UT-r-44" value="" style="endArrow=classic;startArrow=classic;html=1;exitX=1;exitY=0.5;exitDx=0;exitDy=0;entryX=0;entryY=0.5;entryDx=0;entryDy=0;" edge="1" parent="23UplW50tc-FAYj3UT-r-1" source="23UplW50tc-FAYj3UT-r-39" target="23UplW50tc-FAYj3UT-r-43">
          <mxGeometry width="50" height="50" relative="1" as="geometry">
            <mxPoint x="1560" y="875" as="sourcePoint" />
            <mxPoint x="1610" y="825" as="targetPoint" />
          </mxGeometry>
        </mxCell>
        <mxCell id="23UplW50tc-FAYj3UT-r-45" value="&lt;font style=&quot;font-size: 15px&quot;&gt;Gets all the scripts&lt;br&gt;&lt;/font&gt;" style="text;html=1;align=center;verticalAlign=middle;resizable=0;points=[];autosize=1;strokeColor=none;" vertex="1" parent="23UplW50tc-FAYj3UT-r-1">
          <mxGeometry x="1483" y="725" width="140" height="20" as="geometry" />
        </mxCell>
        <mxCell id="23UplW50tc-FAYj3UT-r-46" value="&lt;font style=&quot;font-size: 13px&quot;&gt;This is a forced refresh but the service automatically refreshes it once a day&lt;/font&gt;" style="ellipse;whiteSpace=wrap;html=1;" vertex="1" parent="23UplW50tc-FAYj3UT-r-1">
          <mxGeometry x="430" y="785" width="290" height="80" as="geometry" />
        </mxCell>
        <mxCell id="23UplW50tc-FAYj3UT-r-47" value="&lt;font style=&quot;font-size: 24px&quot;&gt;&lt;b&gt;Agent and Service interaction examples&lt;/b&gt;&lt;/font&gt;" style="text;html=1;align=center;verticalAlign=middle;resizable=0;points=[];autosize=1;strokeColor=none;" vertex="1" parent="23UplW50tc-FAYj3UT-r-1">
          <mxGeometry x="720" y="450" width="470" height="20" as="geometry" />
        </mxCell>
        <mxCell id="23UplW50tc-FAYj3UT-r-48" value="&lt;font size=&quot;1&quot;&gt;&lt;b style=&quot;font-size: 21px&quot;&gt;Changes made after looking at CPU load and RAM ussage&lt;/b&gt;&lt;/font&gt;" style="text;html=1;strokeColor=none;fillColor=none;align=center;verticalAlign=middle;whiteSpace=wrap;rounded=0;" vertex="1" parent="23UplW50tc-FAYj3UT-r-1">
          <mxGeometry x="530" y="940" width="590" height="20" as="geometry" />
        </mxCell>
        <mxCell id="23UplW50tc-FAYj3UT-r-50" value="&lt;font style=&quot;font-size: 15px&quot;&gt;Separate service app without gui&amp;nbsp;&lt;/font&gt;" style="text;html=1;align=center;verticalAlign=middle;resizable=0;points=[];autosize=1;strokeColor=none;" vertex="1" parent="23UplW50tc-FAYj3UT-r-1">
          <mxGeometry x="465" y="220" width="240" height="20" as="geometry" />
        </mxCell>
        <mxCell id="23UplW50tc-FAYj3UT-r-55" value="" style="edgeStyle=orthogonalEdgeStyle;rounded=0;orthogonalLoop=1;jettySize=auto;html=1;" edge="1" parent="23UplW50tc-FAYj3UT-r-1" source="23UplW50tc-FAYj3UT-r-51" target="23UplW50tc-FAYj3UT-r-53">
          <mxGeometry relative="1" as="geometry" />
        </mxCell>
        <mxCell id="23UplW50tc-FAYj3UT-r-51" value="&lt;font style=&quot;font-size: 15px&quot;&gt;GUI app&amp;nbsp;&lt;/font&gt;" style="rounded=1;whiteSpace=wrap;html=1;" vertex="1" parent="23UplW50tc-FAYj3UT-r-1">
          <mxGeometry x="947.5" y="1020" width="120" height="60" as="geometry" />
        </mxCell>
        <mxCell id="23UplW50tc-FAYj3UT-r-56" value="" style="edgeStyle=orthogonalEdgeStyle;rounded=0;orthogonalLoop=1;jettySize=auto;html=1;" edge="1" parent="23UplW50tc-FAYj3UT-r-1" source="23UplW50tc-FAYj3UT-r-52" target="23UplW50tc-FAYj3UT-r-54">
          <mxGeometry relative="1" as="geometry" />
        </mxCell>
        <mxCell id="23UplW50tc-FAYj3UT-r-52" value="&lt;font style=&quot;font-size: 15px&quot;&gt;Service app&lt;/font&gt;" style="rounded=1;whiteSpace=wrap;html=1;" vertex="1" parent="23UplW50tc-FAYj3UT-r-1">
          <mxGeometry x="635" y="1020" width="125" height="60" as="geometry" />
        </mxCell>
        <mxCell id="23UplW50tc-FAYj3UT-r-61" value="" style="edgeStyle=orthogonalEdgeStyle;rounded=0;orthogonalLoop=1;jettySize=auto;html=1;" edge="1" parent="23UplW50tc-FAYj3UT-r-1" source="23UplW50tc-FAYj3UT-r-53" target="23UplW50tc-FAYj3UT-r-58">
          <mxGeometry relative="1" as="geometry" />
        </mxCell>
        <mxCell id="23UplW50tc-FAYj3UT-r-53" value="&lt;font style=&quot;font-size: 15px&quot;&gt;Initially it was over &lt;br&gt;200mb in ram&lt;/font&gt;" style="rounded=1;whiteSpace=wrap;html=1;" vertex="1" parent="23UplW50tc-FAYj3UT-r-1">
          <mxGeometry x="907.5" y="1120" width="200" height="60" as="geometry" />
        </mxCell>
        <mxCell id="23UplW50tc-FAYj3UT-r-60" value="" style="edgeStyle=orthogonalEdgeStyle;rounded=0;orthogonalLoop=1;jettySize=auto;html=1;" edge="1" parent="23UplW50tc-FAYj3UT-r-1" source="23UplW50tc-FAYj3UT-r-54" target="23UplW50tc-FAYj3UT-r-59">
          <mxGeometry relative="1" as="geometry" />
        </mxCell>
        <mxCell id="23UplW50tc-FAYj3UT-r-54" value="&lt;font style=&quot;font-size: 14px&quot;&gt;Initially it was over 150mb in ram&lt;/font&gt;" style="rounded=1;whiteSpace=wrap;html=1;" vertex="1" parent="23UplW50tc-FAYj3UT-r-1">
          <mxGeometry x="587" y="1110" width="220.5" height="60" as="geometry" />
        </mxCell>
        <mxCell id="23UplW50tc-FAYj3UT-r-71" value="" style="edgeStyle=orthogonalEdgeStyle;rounded=0;orthogonalLoop=1;jettySize=auto;html=1;" edge="1" parent="23UplW50tc-FAYj3UT-r-1" source="23UplW50tc-FAYj3UT-r-58" target="23UplW50tc-FAYj3UT-r-70">
          <mxGeometry relative="1" as="geometry" />
        </mxCell>
        <mxCell id="23UplW50tc-FAYj3UT-r-58" value="&lt;font style=&quot;font-size: 15px&quot;&gt;After tweaks and modifications&amp;nbsp;&lt;br&gt;it is around 120mb&lt;/font&gt;" style="rounded=1;whiteSpace=wrap;html=1;" vertex="1" parent="23UplW50tc-FAYj3UT-r-1">
          <mxGeometry x="917.5" y="1220" width="180" height="60" as="geometry" />
        </mxCell>
        <mxCell id="23UplW50tc-FAYj3UT-r-64" value="" style="edgeStyle=orthogonalEdgeStyle;rounded=0;orthogonalLoop=1;jettySize=auto;html=1;" edge="1" parent="23UplW50tc-FAYj3UT-r-1" source="23UplW50tc-FAYj3UT-r-59" target="23UplW50tc-FAYj3UT-r-63">
          <mxGeometry relative="1" as="geometry" />
        </mxCell>
        <mxCell id="23UplW50tc-FAYj3UT-r-59" value="&lt;font style=&quot;font-size: 15px&quot;&gt;After tweaking it was around 80mb&lt;/font&gt;" style="rounded=1;whiteSpace=wrap;html=1;" vertex="1" parent="23UplW50tc-FAYj3UT-r-1">
          <mxGeometry x="607.5" y="1200" width="180" height="60" as="geometry" />
        </mxCell>
        <mxCell id="23UplW50tc-FAYj3UT-r-66" value="" style="edgeStyle=orthogonalEdgeStyle;rounded=0;orthogonalLoop=1;jettySize=auto;html=1;" edge="1" parent="23UplW50tc-FAYj3UT-r-1" source="23UplW50tc-FAYj3UT-r-63" target="23UplW50tc-FAYj3UT-r-65">
          <mxGeometry relative="1" as="geometry" />
        </mxCell>
        <mxCell id="23UplW50tc-FAYj3UT-r-63" value="&lt;font style=&quot;font-size: 15px&quot;&gt;Entirely migrated the service to GO lang&lt;/font&gt;" style="rounded=1;whiteSpace=wrap;html=1;" vertex="1" parent="23UplW50tc-FAYj3UT-r-1">
          <mxGeometry x="621.75" y="1298" width="152.5" height="60" as="geometry" />
        </mxCell>
        <mxCell id="23UplW50tc-FAYj3UT-r-65" value="&lt;font style=&quot;font-size: 15px&quot;&gt;Currently the service is less than 5 mb&amp;nbsp;&lt;/font&gt;" style="rounded=1;whiteSpace=wrap;html=1;" vertex="1" parent="23UplW50tc-FAYj3UT-r-1">
          <mxGeometry x="617" y="1390" width="162" height="40" as="geometry" />
        </mxCell>
        <mxCell id="23UplW50tc-FAYj3UT-r-68" value="&lt;span style=&quot;font-size: 13px&quot;&gt;&amp;nbsp;service is going to be running all the time&amp;nbsp;&lt;br&gt;&lt;/span&gt;&lt;span style=&quot;font-size: 13px&quot;&gt;less ram usage would benefit the user&lt;/span&gt;" style="shape=step;perimeter=stepPerimeter;whiteSpace=wrap;html=1;fixedSize=1;spacingLeft=15;spacingRight=11;size=20;" vertex="1" parent="23UplW50tc-FAYj3UT-r-1">
          <mxGeometry x="310" y="1240" width="277" height="80" as="geometry" />
        </mxCell>
        <mxCell id="23UplW50tc-FAYj3UT-r-74" value="" style="edgeStyle=orthogonalEdgeStyle;rounded=0;orthogonalLoop=1;jettySize=auto;html=1;" edge="1" parent="23UplW50tc-FAYj3UT-r-1" source="23UplW50tc-FAYj3UT-r-70" target="23UplW50tc-FAYj3UT-r-72">
          <mxGeometry relative="1" as="geometry" />
        </mxCell>
        <mxCell id="23UplW50tc-FAYj3UT-r-70" value="&lt;font style=&quot;font-size: 15px&quot;&gt;&lt;span&gt;When agent closes and minimizes&amp;nbsp;&lt;/span&gt;&lt;span&gt;to system tray it still takes up&amp;nbsp;&lt;/span&gt;&lt;span&gt;about 120mb memory&lt;/span&gt;&lt;/font&gt;" style="rounded=1;whiteSpace=wrap;html=1;" vertex="1" parent="23UplW50tc-FAYj3UT-r-1">
          <mxGeometry x="893.14" y="1298" width="228.75" height="80" as="geometry" />
        </mxCell>
        <mxCell id="23UplW50tc-FAYj3UT-r-79" style="edgeStyle=orthogonalEdgeStyle;rounded=0;orthogonalLoop=1;jettySize=auto;html=1;entryX=0;entryY=0.5;entryDx=0;entryDy=0;" edge="1" parent="23UplW50tc-FAYj3UT-r-1" source="23UplW50tc-FAYj3UT-r-72" target="23UplW50tc-FAYj3UT-r-77">
          <mxGeometry relative="1" as="geometry" />
        </mxCell>
        <mxCell id="23UplW50tc-FAYj3UT-r-72" value="&lt;font style=&quot;font-size: 15px&quot;&gt;To solve this there&#39;s a separate system tray exe which can open the agent&lt;/font&gt;" style="rounded=1;whiteSpace=wrap;html=1;" vertex="1" parent="23UplW50tc-FAYj3UT-r-1">
          <mxGeometry x="902.51" y="1410" width="210" height="90" as="geometry" />
        </mxCell>
        <mxCell id="23UplW50tc-FAYj3UT-r-83" value="" style="edgeStyle=orthogonalEdgeStyle;rounded=0;orthogonalLoop=1;jettySize=auto;html=1;" edge="1" parent="23UplW50tc-FAYj3UT-r-1" source="23UplW50tc-FAYj3UT-r-77" target="23UplW50tc-FAYj3UT-r-82">
          <mxGeometry relative="1" as="geometry" />
        </mxCell>
        <mxCell id="23UplW50tc-FAYj3UT-r-86" value="" style="edgeStyle=orthogonalEdgeStyle;rounded=0;orthogonalLoop=1;jettySize=auto;html=1;" edge="1" parent="23UplW50tc-FAYj3UT-r-1" source="23UplW50tc-FAYj3UT-r-77" target="23UplW50tc-FAYj3UT-r-85">
          <mxGeometry relative="1" as="geometry" />
        </mxCell>
        <mxCell id="23UplW50tc-FAYj3UT-r-77" value="&lt;font style=&quot;font-size: 15px&quot;&gt;System tray app&lt;/font&gt;" style="rounded=1;whiteSpace=wrap;html=1;" vertex="1" parent="23UplW50tc-FAYj3UT-r-1">
          <mxGeometry x="1220" y="1020" width="170" height="60" as="geometry" />
        </mxCell>
        <mxCell id="23UplW50tc-FAYj3UT-r-84" value="" style="edgeStyle=orthogonalEdgeStyle;rounded=0;orthogonalLoop=1;jettySize=auto;html=1;" edge="1" parent="23UplW50tc-FAYj3UT-r-1" source="23UplW50tc-FAYj3UT-r-82">
          <mxGeometry relative="1" as="geometry">
            <mxPoint x="1450" y="1440" as="targetPoint" />
          </mxGeometry>
        </mxCell>
        <mxCell id="23UplW50tc-FAYj3UT-r-82" value="&lt;span style=&quot;font-size: 15px&quot;&gt;1.Agent system tray app will be launched during startup and it will be running in system tray&amp;nbsp;&lt;/span&gt;&lt;br style=&quot;font-size: 15px&quot;&gt;&lt;br style=&quot;font-size: 15px&quot;&gt;&lt;span style=&quot;font-size: 15px&quot;&gt;2. In this method the agent will fully close and ram will be freed&lt;br&gt;&lt;br&gt;3. We dont need the agent running at all times because&amp;nbsp;the remote script executions are taken care of by the service which cant be closed by user and when the user wants to use the self-help he can use the systray app to open the agent&lt;/span&gt;" style="rounded=1;whiteSpace=wrap;html=1;" vertex="1" parent="23UplW50tc-FAYj3UT-r-1">
          <mxGeometry x="1210" y="1200" width="432.5" height="260" as="geometry" />
        </mxCell>
        <mxCell id="23UplW50tc-FAYj3UT-r-85" value="&lt;font style=&quot;font-size: 15px&quot;&gt;Initially made a light weight python app which was using about 14 mb&amp;nbsp;&lt;br&gt;&lt;br&gt;But later migrated to GO and it only takes up about 5mb of ram&lt;/font&gt;" style="rounded=1;whiteSpace=wrap;html=1;spacingLeft=4;spacing=4;" vertex="1" parent="23UplW50tc-FAYj3UT-r-1">
          <mxGeometry x="1440" y="990" width="260" height="120" as="geometry" />
        </mxCell>
      </root>
    </mxGraphModel>
  </diagram>
</mxfile>
